<mxfile host="Electron" modified="2025-05-06T09:53:32.134Z" agent="Mozilla/5.0 (Windows NT 10.0; Win64; x64) AppleWebKit/537.36 (KHTML, like Gecko) draw.io/22.1.2 Chrome/114.0.5735.289 Electron/25.9.4 Safari/537.36" etag="kqmzjKRY-eyiXRzLKZwt" version="22.1.2" type="device">
  <diagram name="Page-1" id="26TztQpaFviOHihFA-Va">
    <mxGraphModel dx="2071" dy="823" grid="1" gridSize="10" guides="1" tooltips="1" connect="1" arrows="1" fold="1" page="1" pageScale="1" pageWidth="850" pageHeight="1100" math="0" shadow="0">
      <root>
        <mxCell id="0" />
        <mxCell id="1" parent="0" />
        <mxCell id="Xd_uYWREcJ-S0NkbxEmc-1" value="&lt;font style=&quot;font-size: 25px;&quot;&gt;Generiek vrije plaatsen platform&lt;/font&gt;" style="text;html=1;align=center;verticalAlign=middle;resizable=0;points=[];autosize=1;strokeColor=none;fillColor=none;" vertex="1" parent="1">
          <mxGeometry x="170" y="370" width="380" height="40" as="geometry" />
        </mxCell>
        <mxCell id="Xd_uYWREcJ-S0NkbxEmc-2" value="Homepagina" style="rounded=1;whiteSpace=wrap;html=1;" vertex="1" parent="1">
          <mxGeometry x="300" y="440" width="120" height="60" as="geometry" />
        </mxCell>
        <mxCell id="Xd_uYWREcJ-S0NkbxEmc-3" value="Filterpagina" style="rounded=1;whiteSpace=wrap;html=1;" vertex="1" parent="1">
          <mxGeometry x="660" y="580" width="120" height="60" as="geometry" />
        </mxCell>
        <mxCell id="Xd_uYWREcJ-S0NkbxEmc-4" value="Kaartpagina" style="rounded=1;whiteSpace=wrap;html=1;" vertex="1" parent="1">
          <mxGeometry x="300" y="580" width="120" height="60" as="geometry" />
        </mxCell>
        <mxCell id="Xd_uYWREcJ-S0NkbxEmc-7" value="Webpagina organisatie (via URL)" style="rounded=1;whiteSpace=wrap;html=1;" vertex="1" parent="1">
          <mxGeometry x="750" y="670" width="120" height="60" as="geometry" />
        </mxCell>
        <mxCell id="Xd_uYWREcJ-S0NkbxEmc-10" value="Filter dashboard (Filtermanager)" style="rounded=1;whiteSpace=wrap;html=1;" vertex="1" parent="1">
          <mxGeometry x="-160" y="670" width="120" height="60" as="geometry" />
        </mxCell>
        <mxCell id="Xd_uYWREcJ-S0NkbxEmc-11" value="Vrijeplaatsen dashboard (Capaciteitsmanager)" style="rounded=1;whiteSpace=wrap;html=1;" vertex="1" parent="1">
          <mxGeometry x="-160" y="760" width="120" height="60" as="geometry" />
        </mxCell>
        <mxCell id="Xd_uYWREcJ-S0NkbxEmc-14" value="Admin login pagina" style="rounded=1;whiteSpace=wrap;html=1;" vertex="1" parent="1">
          <mxGeometry x="-60" y="580" width="120" height="60" as="geometry" />
        </mxCell>
        <mxCell id="Xd_uYWREcJ-S0NkbxEmc-18" value="About us pagina" style="rounded=1;whiteSpace=wrap;html=1;" vertex="1" parent="1">
          <mxGeometry x="120" y="580" width="120" height="60" as="geometry" />
        </mxCell>
        <mxCell id="Xd_uYWREcJ-S0NkbxEmc-20" value="Privacy policy pagina" style="rounded=1;whiteSpace=wrap;html=1;" vertex="1" parent="1">
          <mxGeometry x="480" y="580" width="120" height="60" as="geometry" />
        </mxCell>
        <mxCell id="Xd_uYWREcJ-S0NkbxEmc-24" value="" style="endArrow=none;html=1;rounded=0;entryX=0.5;entryY=1;entryDx=0;entryDy=0;" edge="1" parent="1" target="Xd_uYWREcJ-S0NkbxEmc-14">
          <mxGeometry width="50" height="50" relative="1" as="geometry">
            <mxPoint y="790" as="sourcePoint" />
            <mxPoint x="30" y="780" as="targetPoint" />
          </mxGeometry>
        </mxCell>
        <mxCell id="Xd_uYWREcJ-S0NkbxEmc-25" value="" style="endArrow=none;html=1;rounded=0;exitX=1;exitY=0.5;exitDx=0;exitDy=0;" edge="1" parent="1" source="Xd_uYWREcJ-S0NkbxEmc-11">
          <mxGeometry width="50" height="50" relative="1" as="geometry">
            <mxPoint x="80" y="840" as="sourcePoint" />
            <mxPoint y="790" as="targetPoint" />
          </mxGeometry>
        </mxCell>
        <mxCell id="Xd_uYWREcJ-S0NkbxEmc-26" value="" style="endArrow=none;html=1;rounded=0;exitX=1;exitY=0.5;exitDx=0;exitDy=0;" edge="1" parent="1" source="Xd_uYWREcJ-S0NkbxEmc-10">
          <mxGeometry width="50" height="50" relative="1" as="geometry">
            <mxPoint x="40" y="550" as="sourcePoint" />
            <mxPoint y="700" as="targetPoint" />
          </mxGeometry>
        </mxCell>
        <mxCell id="Xd_uYWREcJ-S0NkbxEmc-28" value="" style="endArrow=none;html=1;rounded=0;entryX=0.5;entryY=1;entryDx=0;entryDy=0;" edge="1" parent="1" target="Xd_uYWREcJ-S0NkbxEmc-3">
          <mxGeometry width="50" height="50" relative="1" as="geometry">
            <mxPoint x="720" y="700" as="sourcePoint" />
            <mxPoint x="690" y="760" as="targetPoint" />
          </mxGeometry>
        </mxCell>
        <mxCell id="Xd_uYWREcJ-S0NkbxEmc-29" value="" style="endArrow=none;html=1;rounded=0;exitX=0;exitY=0.5;exitDx=0;exitDy=0;" edge="1" parent="1" source="Xd_uYWREcJ-S0NkbxEmc-7">
          <mxGeometry width="50" height="50" relative="1" as="geometry">
            <mxPoint x="280" y="550" as="sourcePoint" />
            <mxPoint x="720" y="700" as="targetPoint" />
          </mxGeometry>
        </mxCell>
        <mxCell id="Xd_uYWREcJ-S0NkbxEmc-30" value="" style="endArrow=none;html=1;rounded=0;entryX=0.5;entryY=1;entryDx=0;entryDy=0;" edge="1" parent="1" target="Xd_uYWREcJ-S0NkbxEmc-2">
          <mxGeometry width="50" height="50" relative="1" as="geometry">
            <mxPoint x="360" y="540" as="sourcePoint" />
            <mxPoint x="260" y="500" as="targetPoint" />
          </mxGeometry>
        </mxCell>
        <mxCell id="Xd_uYWREcJ-S0NkbxEmc-31" value="" style="endArrow=none;html=1;rounded=0;" edge="1" parent="1">
          <mxGeometry width="50" height="50" relative="1" as="geometry">
            <mxPoint y="540" as="sourcePoint" />
            <mxPoint x="720" y="540" as="targetPoint" />
          </mxGeometry>
        </mxCell>
        <mxCell id="Xd_uYWREcJ-S0NkbxEmc-32" value="" style="endArrow=none;html=1;rounded=0;exitX=0.5;exitY=0;exitDx=0;exitDy=0;" edge="1" parent="1" source="Xd_uYWREcJ-S0NkbxEmc-14">
          <mxGeometry width="50" height="50" relative="1" as="geometry">
            <mxPoint x="210" y="550" as="sourcePoint" />
            <mxPoint y="540" as="targetPoint" />
          </mxGeometry>
        </mxCell>
        <mxCell id="Xd_uYWREcJ-S0NkbxEmc-33" value="" style="endArrow=none;html=1;rounded=0;exitX=0.5;exitY=0;exitDx=0;exitDy=0;" edge="1" parent="1" source="Xd_uYWREcJ-S0NkbxEmc-18">
          <mxGeometry width="50" height="50" relative="1" as="geometry">
            <mxPoint x="210" y="550" as="sourcePoint" />
            <mxPoint x="180" y="540" as="targetPoint" />
          </mxGeometry>
        </mxCell>
        <mxCell id="Xd_uYWREcJ-S0NkbxEmc-34" value="" style="endArrow=none;html=1;rounded=0;exitX=0.5;exitY=0;exitDx=0;exitDy=0;" edge="1" parent="1" source="Xd_uYWREcJ-S0NkbxEmc-4">
          <mxGeometry width="50" height="50" relative="1" as="geometry">
            <mxPoint x="210" y="550" as="sourcePoint" />
            <mxPoint x="360" y="540" as="targetPoint" />
          </mxGeometry>
        </mxCell>
        <mxCell id="Xd_uYWREcJ-S0NkbxEmc-35" value="" style="endArrow=none;html=1;rounded=0;exitX=0.5;exitY=0;exitDx=0;exitDy=0;" edge="1" parent="1" source="Xd_uYWREcJ-S0NkbxEmc-20">
          <mxGeometry width="50" height="50" relative="1" as="geometry">
            <mxPoint x="210" y="550" as="sourcePoint" />
            <mxPoint x="540" y="540" as="targetPoint" />
          </mxGeometry>
        </mxCell>
        <mxCell id="Xd_uYWREcJ-S0NkbxEmc-36" value="" style="endArrow=none;html=1;rounded=0;exitX=0.5;exitY=0;exitDx=0;exitDy=0;" edge="1" parent="1" source="Xd_uYWREcJ-S0NkbxEmc-3">
          <mxGeometry width="50" height="50" relative="1" as="geometry">
            <mxPoint x="330" y="550" as="sourcePoint" />
            <mxPoint x="720" y="540" as="targetPoint" />
          </mxGeometry>
        </mxCell>
      </root>
    </mxGraphModel>
  </diagram>
</mxfile>
